<svg width="48" height="48" viewBox="0 0 48 48" fill="none" xmlns="http://www.w3.org/2000/svg">
<rect y="24" width="33.9411" height="33.9411" rx="5" transform="rotate(-45 0 24)" fill="#FAFAFA"/>
<path d="M14.2553 28.7773V17.2615C14.2553 16.4332 14.4472 15.7109 14.8311 15.0947C15.2149 14.4785 15.8059 13.9735 16.6039 13.5795C17.4019 13.1855 18.4121 12.8926 19.6343 12.7007C20.8566 12.5087 22.2961 12.4128 23.9527 12.4128C25.6902 12.4128 27.1701 12.5037 28.3924 12.6855C29.6146 12.8673 30.6147 13.1552 31.3925 13.5492C32.1703 13.9432 32.7411 14.4432 33.1047 15.0493C33.4684 15.6554 33.6502 16.3928 33.6502 17.2615V28.7773C33.6502 29.9692 33.2411 30.9743 32.4229 31.7926C31.6046 32.6108 30.5995 33.0199 29.4076 33.0199L31.2258 34.8382V35.4443H29.1045L26.6802 33.0199H21.2253L18.801 35.4443H16.6796V34.8382L18.4979 33.0199C17.3059 33.0199 16.3008 32.6108 15.4826 31.7926C14.6644 30.9743 14.2553 29.9692 14.2553 28.7773ZM16.0736 22.5648H23.1648V17.8676H16.0736V22.5648ZM24.9831 22.5648H31.8319V17.8676H24.9831V22.5648ZM19.5586 29.5349C20.0233 29.5349 20.4172 29.3732 20.7405 29.05C21.0637 28.7267 21.2253 28.3328 21.2253 27.8681C21.2253 27.4034 21.0637 27.0095 20.7405 26.6862C20.4172 26.363 20.0233 26.2014 19.5586 26.2014C19.0939 26.2014 18.7 26.363 18.3767 26.6862C18.0535 27.0095 17.8918 27.4034 17.8918 27.8681C17.8918 28.3328 18.0535 28.7267 18.3767 29.05C18.7 29.3732 19.0939 29.5349 19.5586 29.5349ZM28.3469 29.5349C28.8116 29.5349 29.2055 29.3732 29.5288 29.05C29.852 28.7267 30.0137 28.3328 30.0137 27.8681C30.0137 27.4034 29.852 27.0095 29.5288 26.6862C29.2055 26.363 28.8116 26.2014 28.3469 26.2014C27.8822 26.2014 27.4883 26.363 27.165 26.6862C26.8418 27.0095 26.6802 27.4034 26.6802 27.8681C26.6802 28.3328 26.8418 28.7267 27.165 29.05C27.4883 29.3732 27.8822 29.5349 28.3469 29.5349Z" fill="black"/>
</svg>
