<svg width="48" height="48" viewBox="0 0 48 48" fill="none" xmlns="http://www.w3.org/2000/svg">
<rect y="24" width="33.9411" height="33.9411" rx="5" transform="rotate(-45 0 24)" fill="#0076E2"/>
<path d="M17.8182 36V12.7273H25.6818C27.5076 12.7273 29 13.0568 30.1591 13.7159C31.3258 14.3674 32.1894 15.25 32.75 16.3636C33.3106 17.4773 33.5909 18.7197 33.5909 20.0909C33.5909 21.4621 33.3106 22.7083 32.75 23.8295C32.197 24.9508 31.3409 25.8447 30.1818 26.5114C29.0227 27.1705 27.5379 27.5 25.7273 27.5H20.0909V25H25.6364C26.8864 25 27.8902 24.7841 28.6477 24.3523C29.4053 23.9205 29.9545 23.3371 30.2955 22.6023C30.6439 21.8598 30.8182 21.0227 30.8182 20.0909C30.8182 19.1591 30.6439 18.3258 30.2955 17.5909C29.9545 16.8561 29.4015 16.2803 28.6364 15.8636C27.8712 15.4394 26.8561 15.2273 25.5909 15.2273H20.6364V36H17.8182Z" fill="white"/>
</svg>
