<?xml version="1.0" encoding="UTF-8" standalone="no"?>
<svg
   height="40"
   viewBox="0 -960 960 960"
   width="40"
   version="1.1"
   xmlns="http://www.w3.org/2000/svg">
  <rect
     width="678.82001"
     height="678.82001"
     fill="#fafafa"
     x="339.41248"
     y="-339.41003"
     rx="100"
     transform="rotate(-45)"
     id="rect2"
     style="stroke-width:20" />
  <path
     d="m 326.6686,-195.8245 q -14.84,0 -25.0024,-10.2296 -10.1624,-10.2288 -10.1624,-25.0288 v -349.3792 q 0,-84.244 58.9104,-143.3048 58.9104,-59.0616 143.4552,-59.0616 84.244,0 143.3048,59.0616 59.0616,59.0608 59.0616,143.3048 v 137.6808 l 40.3712,-40.3712 q 10.2952,-10.296 24.5448,-10.296 14.2496,0 24.8464,10.296 10.296,10.2952 10.296,24.6952 0,14.4 -10.296,24.696 l -100.1744,99.8728 q -5.3216,5.3224 -11.7352,8.0352 -6.4128,2.7128 -13.484,2.7128 -6.7696,0 -13.2624,-2.7128 -6.4928,-2.7128 -11.5128,-8.0352 L 535.655,-433.7613 q -10.296,-10.296 -10.296,-24.4696 0,-14.1736 10.748,-24.7712 10.4464,-10.296 24.0928,-10.5216 13.6464,-0.2264 24.2432,9.9184 l 40.9744,40.824 v -137.6808 q 0,-54.524 -38.5368,-93.036 -38.5376,-38.512 -93.096,-38.512 -54.86,0 -93.312,38.512 -38.452,38.512 -38.452,93.036 v 349.3792 q 0,14.8 -10.256,25.0288 -10.256,10.2296 -25.096,10.2296 z"
     id="path4"
     style="stroke-width:0.8" />
</svg>
